<mxfile host="Electron" modified="2023-05-29T13:31:03.504Z" agent="Mozilla/5.0 (Windows NT 10.0; Win64; x64) AppleWebKit/537.36 (KHTML, like Gecko) draw.io/21.2.8 Chrome/112.0.5615.165 Electron/24.2.0 Safari/537.36" etag="rCCGq0klXZChKNpdLlRE" version="21.2.8" type="device">
  <diagram name="Page-1" id="-yQEPXlO2FQk3VNVWpFE">
    <mxGraphModel dx="1036" dy="614" grid="1" gridSize="10" guides="1" tooltips="1" connect="1" arrows="1" fold="1" page="1" pageScale="1" pageWidth="850" pageHeight="1100" math="0" shadow="0">
      <root>
        <mxCell id="0" />
        <mxCell id="1" parent="0" />
        <mxCell id="ty8Oa_61YEUr2Q36sO8U-11" value="&amp;nbsp;" style="html=1;whiteSpace=wrap;fillColor=none;strokeColor=none;" parent="1" vertex="1">
          <mxGeometry x="50" y="212.5" width="80" height="120" as="geometry" />
        </mxCell>
        <mxCell id="ty8Oa_61YEUr2Q36sO8U-4" value="Панель администратора" style="html=1;whiteSpace=wrap;rounded=1;strokeWidth=2;fontStyle=1;verticalAlign=top;" parent="1" vertex="1">
          <mxGeometry x="160" y="40" width="200" height="440" as="geometry" />
        </mxCell>
        <mxCell id="ty8Oa_61YEUr2Q36sO8U-1" value="admin" style="shape=umlActor;verticalLabelPosition=bottom;verticalAlign=top;html=1;fontStyle=0;strokeWidth=2;" parent="1" vertex="1">
          <mxGeometry x="75" y="242.5" width="30" height="60" as="geometry" />
        </mxCell>
        <mxCell id="ty8Oa_61YEUr2Q36sO8U-2" value="Мобильное приложение" style="html=1;whiteSpace=wrap;rounded=1;strokeWidth=2;fontStyle=1;verticalAlign=top;" parent="1" vertex="1">
          <mxGeometry x="520" y="40" width="200" height="440" as="geometry" />
        </mxCell>
        <mxCell id="ty8Oa_61YEUr2Q36sO8U-5" value="Просмотр списка номенклатуры" style="ellipse;whiteSpace=wrap;html=1;strokeWidth=2;fontStyle=1" parent="1" vertex="1">
          <mxGeometry x="190" y="160" width="140" height="70" as="geometry" />
        </mxCell>
        <mxCell id="ty8Oa_61YEUr2Q36sO8U-7" value="Просмотр номенклатуры&lt;br&gt;по id" style="ellipse;whiteSpace=wrap;html=1;strokeWidth=2;fontStyle=1" parent="1" vertex="1">
          <mxGeometry x="190" y="237.5" width="140" height="70" as="geometry" />
        </mxCell>
        <mxCell id="ty8Oa_61YEUr2Q36sO8U-8" value="Просмотр номенклатуры&lt;br&gt;по модели" style="ellipse;whiteSpace=wrap;html=1;strokeWidth=2;fontStyle=1" parent="1" vertex="1">
          <mxGeometry x="550" y="160" width="140" height="70" as="geometry" />
        </mxCell>
        <mxCell id="ty8Oa_61YEUr2Q36sO8U-9" value="Обновление номенклатуры&lt;br&gt;по id" style="ellipse;whiteSpace=wrap;html=1;strokeWidth=2;fontStyle=1" parent="1" vertex="1">
          <mxGeometry x="190" y="320" width="140" height="70" as="geometry" />
        </mxCell>
        <mxCell id="ty8Oa_61YEUr2Q36sO8U-10" value="Удаление номенклатуры&lt;br&gt;по id" style="ellipse;whiteSpace=wrap;html=1;strokeWidth=2;fontStyle=1" parent="1" vertex="1">
          <mxGeometry x="190" y="400" width="140" height="70" as="geometry" />
        </mxCell>
        <mxCell id="fedwkJ3pUQnBemSIdSbc-1" value="Создание&lt;br&gt;номенклатуры" style="ellipse;whiteSpace=wrap;html=1;strokeWidth=2;fontStyle=1" parent="1" vertex="1">
          <mxGeometry x="190" y="80" width="140" height="70" as="geometry" />
        </mxCell>
        <mxCell id="z1yLiIvH8jLQGiEGdz1z-9" style="rounded=0;orthogonalLoop=1;jettySize=auto;html=1;exitX=1;exitY=0.5;exitDx=0;exitDy=0;entryX=0;entryY=0.5;entryDx=0;entryDy=0;strokeWidth=2;" edge="1" parent="1" target="z1yLiIvH8jLQGiEGdz1z-2">
          <mxGeometry relative="1" as="geometry">
            <mxPoint x="490" y="275" as="sourcePoint" />
          </mxGeometry>
        </mxCell>
        <mxCell id="z1yLiIvH8jLQGiEGdz1z-10" style="rounded=0;orthogonalLoop=1;jettySize=auto;html=1;exitX=1;exitY=0.5;exitDx=0;exitDy=0;entryX=0;entryY=0.5;entryDx=0;entryDy=0;strokeWidth=2;" edge="1" parent="1" target="ty8Oa_61YEUr2Q36sO8U-8">
          <mxGeometry relative="1" as="geometry">
            <mxPoint x="490" y="275" as="sourcePoint" />
          </mxGeometry>
        </mxCell>
        <mxCell id="z1yLiIvH8jLQGiEGdz1z-11" style="rounded=0;orthogonalLoop=1;jettySize=auto;html=1;exitX=1;exitY=0.5;exitDx=0;exitDy=0;entryX=0;entryY=0.5;entryDx=0;entryDy=0;strokeWidth=2;" edge="1" parent="1" target="_YnQZjqhHpzGEZbKe6l8-16">
          <mxGeometry relative="1" as="geometry">
            <mxPoint x="490" y="275" as="sourcePoint" />
          </mxGeometry>
        </mxCell>
        <mxCell id="z1yLiIvH8jLQGiEGdz1z-12" style="rounded=0;orthogonalLoop=1;jettySize=auto;html=1;exitX=1;exitY=0.5;exitDx=0;exitDy=0;entryX=0;entryY=0.5;entryDx=0;entryDy=0;strokeWidth=2;" edge="1" parent="1" target="_YnQZjqhHpzGEZbKe6l8-17">
          <mxGeometry relative="1" as="geometry">
            <mxPoint x="490" y="275" as="sourcePoint" />
          </mxGeometry>
        </mxCell>
        <mxCell id="z1yLiIvH8jLQGiEGdz1z-13" style="rounded=0;orthogonalLoop=1;jettySize=auto;html=1;exitX=1;exitY=0.5;exitDx=0;exitDy=0;entryX=0;entryY=0.5;entryDx=0;entryDy=0;strokeWidth=2;" edge="1" parent="1" target="_YnQZjqhHpzGEZbKe6l8-14">
          <mxGeometry relative="1" as="geometry">
            <mxPoint x="490" y="275" as="sourcePoint" />
          </mxGeometry>
        </mxCell>
        <mxCell id="fedwkJ3pUQnBemSIdSbc-10" value="&amp;nbsp;" style="html=1;whiteSpace=wrap;fillColor=none;strokeColor=none;" parent="1" vertex="1">
          <mxGeometry x="410" y="215" width="80" height="120" as="geometry" />
        </mxCell>
        <mxCell id="fedwkJ3pUQnBemSIdSbc-11" value="any" style="shape=umlActor;verticalLabelPosition=bottom;verticalAlign=top;html=1;fontStyle=0;strokeWidth=2;" parent="1" vertex="1">
          <mxGeometry x="435" y="242.5" width="30" height="60" as="geometry" />
        </mxCell>
        <mxCell id="_YnQZjqhHpzGEZbKe6l8-14" value="Просмотр номенкдатуры по списку моделей&lt;br&gt;(корзина)" style="ellipse;whiteSpace=wrap;html=1;strokeWidth=2;fontStyle=1" parent="1" vertex="1">
          <mxGeometry x="550" y="400" width="140" height="70" as="geometry" />
        </mxCell>
        <mxCell id="_YnQZjqhHpzGEZbKe6l8-16" value="Получение&lt;br&gt;5 записей номенклатуры из поиска" style="ellipse;whiteSpace=wrap;html=1;strokeWidth=2;fontStyle=1" parent="1" vertex="1">
          <mxGeometry x="550" y="240" width="140" height="70" as="geometry" />
        </mxCell>
        <mxCell id="_YnQZjqhHpzGEZbKe6l8-17" value="Получение&lt;br&gt;всех записей номенклатуры&lt;br&gt;из поиска" style="ellipse;whiteSpace=wrap;html=1;strokeWidth=2;fontStyle=1" parent="1" vertex="1">
          <mxGeometry x="550" y="320" width="140" height="70" as="geometry" />
        </mxCell>
        <mxCell id="z1yLiIvH8jLQGiEGdz1z-2" value="Просмотр списка номенклатуры по категории" style="ellipse;whiteSpace=wrap;html=1;strokeWidth=2;fontStyle=1" vertex="1" parent="1">
          <mxGeometry x="550" y="80" width="140" height="70" as="geometry" />
        </mxCell>
        <mxCell id="z1yLiIvH8jLQGiEGdz1z-14" style="rounded=0;orthogonalLoop=1;jettySize=auto;html=1;exitX=1;exitY=0.5;exitDx=0;exitDy=0;entryX=0;entryY=0.5;entryDx=0;entryDy=0;strokeWidth=2;" edge="1" parent="1" source="ty8Oa_61YEUr2Q36sO8U-11" target="ty8Oa_61YEUr2Q36sO8U-10">
          <mxGeometry relative="1" as="geometry" />
        </mxCell>
        <mxCell id="z1yLiIvH8jLQGiEGdz1z-15" style="rounded=0;orthogonalLoop=1;jettySize=auto;html=1;exitX=1;exitY=0.5;exitDx=0;exitDy=0;entryX=0;entryY=0.5;entryDx=0;entryDy=0;strokeWidth=2;" edge="1" parent="1" source="ty8Oa_61YEUr2Q36sO8U-11" target="ty8Oa_61YEUr2Q36sO8U-9">
          <mxGeometry relative="1" as="geometry" />
        </mxCell>
        <mxCell id="z1yLiIvH8jLQGiEGdz1z-16" style="rounded=0;orthogonalLoop=1;jettySize=auto;html=1;exitX=1;exitY=0.5;exitDx=0;exitDy=0;entryX=0;entryY=0.5;entryDx=0;entryDy=0;strokeWidth=2;" edge="1" parent="1" source="ty8Oa_61YEUr2Q36sO8U-11" target="ty8Oa_61YEUr2Q36sO8U-7">
          <mxGeometry relative="1" as="geometry" />
        </mxCell>
        <mxCell id="z1yLiIvH8jLQGiEGdz1z-17" style="rounded=0;orthogonalLoop=1;jettySize=auto;html=1;exitX=1;exitY=0.5;exitDx=0;exitDy=0;entryX=0;entryY=0.5;entryDx=0;entryDy=0;strokeWidth=2;" edge="1" parent="1" source="ty8Oa_61YEUr2Q36sO8U-11" target="ty8Oa_61YEUr2Q36sO8U-5">
          <mxGeometry relative="1" as="geometry" />
        </mxCell>
        <mxCell id="z1yLiIvH8jLQGiEGdz1z-18" style="rounded=0;orthogonalLoop=1;jettySize=auto;html=1;exitX=1;exitY=0.5;exitDx=0;exitDy=0;entryX=0;entryY=0.5;entryDx=0;entryDy=0;strokeWidth=2;" edge="1" parent="1" source="ty8Oa_61YEUr2Q36sO8U-11" target="fedwkJ3pUQnBemSIdSbc-1">
          <mxGeometry relative="1" as="geometry" />
        </mxCell>
      </root>
    </mxGraphModel>
  </diagram>
</mxfile>
